<?xml version="1.0" encoding="UTF-8"?>
<?xml-stylesheet href="https://cdnjs.cloudflare.com/ajax/libs/font-awesome/6.7.2/css/all.min.css" type="text/css"?>
<svg aria-roledescription="sequence" role="graphics-document document" style="overflow: hidden; max-width: 100%; touch-action: none; user-select: none; -webkit-user-drag: none; -webkit-tap-highlight-color: rgba(0, 0, 0, 0);" xmlns="http://www.w3.org/2000/svg" width="100%" id="graph-48" height="100%" xmlns:xlink="http://www.w3.org/1999/xlink" xmlns:ev="http://www.w3.org/2001/xml-events"><defs><symbol height="24" width="24" id="computer"><path d="M2 2v13h20v-13h-20zm18 11h-16v-9h16v9zm-10.228 6l.466-1h3.524l.467 1h-4.457zm14.228 3h-24l2-6h2.104l-1.33 4h18.45l-1.297-4h2.073l2 6zm-5-10h-14v-7h14v7z" transform="scale(.5)"></path></symbol></defs><defs><symbol clip-rule="evenodd" fill-rule="evenodd" id="database"><path d="M12.258.001l.256.004.255.005.253.008.251.01.249.012.247.015.246.016.242.019.241.02.239.023.236.024.233.027.231.028.229.031.225.032.223.034.22.036.217.038.214.04.211.041.208.043.205.045.201.046.198.048.194.05.191.051.187.053.183.054.18.056.175.057.172.059.168.06.163.061.16.063.155.064.15.066.074.033.073.033.071.034.07.034.069.035.068.035.067.035.066.035.064.036.064.036.062.036.06.036.06.037.058.037.058.037.055.038.055.038.053.038.052.038.051.039.05.039.048.039.047.039.045.04.044.04.043.04.041.04.04.041.039.041.037.041.036.041.034.041.033.042.032.042.03.042.029.042.027.042.026.043.024.043.023.043.021.043.02.043.018.044.017.043.015.044.013.044.012.044.011.045.009.044.007.045.006.045.004.045.002.045.001.045v17l-.001.045-.002.045-.004.045-.006.045-.007.045-.009.044-.011.045-.012.044-.013.044-.015.044-.017.043-.018.044-.02.043-.021.043-.023.043-.024.043-.026.043-.027.042-.029.042-.03.042-.032.042-.033.042-.034.041-.036.041-.037.041-.039.041-.04.041-.041.04-.043.04-.044.04-.045.04-.047.039-.048.039-.05.039-.051.039-.052.038-.053.038-.055.038-.055.038-.058.037-.058.037-.06.037-.06.036-.062.036-.064.036-.064.036-.066.035-.067.035-.068.035-.069.035-.07.034-.071.034-.073.033-.074.033-.15.066-.155.064-.16.063-.163.061-.168.06-.172.059-.175.057-.18.056-.183.054-.187.053-.191.051-.194.05-.198.048-.201.046-.205.045-.208.043-.211.041-.214.04-.217.038-.22.036-.223.034-.225.032-.229.031-.231.028-.233.027-.236.024-.239.023-.241.02-.242.019-.246.016-.247.015-.249.012-.251.01-.253.008-.255.005-.256.004-.258.001-.258-.001-.256-.004-.255-.005-.253-.008-.251-.01-.249-.012-.247-.015-.245-.016-.243-.019-.241-.02-.238-.023-.236-.024-.234-.027-.231-.028-.228-.031-.226-.032-.223-.034-.22-.036-.217-.038-.214-.04-.211-.041-.208-.043-.204-.045-.201-.046-.198-.048-.195-.05-.19-.051-.187-.053-.184-.054-.179-.056-.176-.057-.172-.059-.167-.06-.164-.061-.159-.063-.155-.064-.151-.066-.074-.033-.072-.033-.072-.034-.07-.034-.069-.035-.068-.035-.067-.035-.066-.035-.064-.036-.063-.036-.062-.036-.061-.036-.06-.037-.058-.037-.057-.037-.056-.038-.055-.038-.053-.038-.052-.038-.051-.039-.049-.039-.049-.039-.046-.039-.046-.04-.044-.04-.043-.04-.041-.04-.04-.041-.039-.041-.037-.041-.036-.041-.034-.041-.033-.042-.032-.042-.03-.042-.029-.042-.027-.042-.026-.043-.024-.043-.023-.043-.021-.043-.02-.043-.018-.044-.017-.043-.015-.044-.013-.044-.012-.044-.011-.045-.009-.044-.007-.045-.006-.045-.004-.045-.002-.045-.001-.045v-17l.001-.045.002-.045.004-.045.006-.045.007-.045.009-.044.011-.045.012-.044.013-.044.015-.044.017-.043.018-.044.02-.043.021-.043.023-.043.024-.043.026-.043.027-.042.029-.042.03-.042.032-.042.033-.042.034-.041.036-.041.037-.041.039-.041.04-.041.041-.04.043-.04.044-.04.046-.04.046-.039.049-.039.049-.039.051-.039.052-.038.053-.038.055-.038.056-.038.057-.037.058-.037.06-.037.061-.036.062-.036.063-.036.064-.036.066-.035.067-.035.068-.035.069-.035.07-.034.072-.034.072-.033.074-.033.151-.066.155-.064.159-.063.164-.061.167-.06.172-.059.176-.057.179-.056.184-.054.187-.053.19-.051.195-.05.198-.048.201-.046.204-.045.208-.043.211-.041.214-.04.217-.038.22-.036.223-.034.226-.032.228-.031.231-.028.234-.027.236-.024.238-.023.241-.02.243-.019.245-.016.247-.015.249-.012.251-.01.253-.008.255-.005.256-.004.258-.001.258.001zm-9.258 20.499v.01l.001.021.003.021.004.022.005.021.006.022.007.022.009.023.01.022.011.023.012.023.013.023.015.023.016.024.017.023.018.024.019.024.021.024.022.025.023.024.024.025.052.049.056.05.061.051.066.051.07.051.075.051.079.052.084.052.088.052.092.052.097.052.102.051.105.052.11.052.114.051.119.051.123.051.127.05.131.05.135.05.139.048.144.049.147.047.152.047.155.047.16.045.163.045.167.043.171.043.176.041.178.041.183.039.187.039.19.037.194.035.197.035.202.033.204.031.209.03.212.029.216.027.219.025.222.024.226.021.23.02.233.018.236.016.24.015.243.012.246.01.249.008.253.005.256.004.259.001.26-.001.257-.004.254-.005.25-.008.247-.011.244-.012.241-.014.237-.016.233-.018.231-.021.226-.021.224-.024.22-.026.216-.027.212-.028.21-.031.205-.031.202-.034.198-.034.194-.036.191-.037.187-.039.183-.04.179-.04.175-.042.172-.043.168-.044.163-.045.16-.046.155-.046.152-.047.148-.048.143-.049.139-.049.136-.05.131-.05.126-.05.123-.051.118-.052.114-.051.11-.052.106-.052.101-.052.096-.052.092-.052.088-.053.083-.051.079-.052.074-.052.07-.051.065-.051.06-.051.056-.05.051-.05.023-.024.023-.025.021-.024.02-.024.019-.024.018-.024.017-.024.015-.023.014-.024.013-.023.012-.023.01-.023.01-.022.008-.022.006-.022.006-.022.004-.022.004-.021.001-.021.001-.021v-4.127l-.077.055-.08.053-.083.054-.085.053-.087.052-.09.052-.093.051-.095.05-.097.05-.1.049-.102.049-.105.048-.106.047-.109.047-.111.046-.114.045-.115.045-.118.044-.12.043-.122.042-.124.042-.126.041-.128.04-.13.04-.132.038-.134.038-.135.037-.138.037-.139.035-.142.035-.143.034-.144.033-.147.032-.148.031-.15.03-.151.03-.153.029-.154.027-.156.027-.158.026-.159.025-.161.024-.162.023-.163.022-.165.021-.166.02-.167.019-.169.018-.169.017-.171.016-.173.015-.173.014-.175.013-.175.012-.177.011-.178.01-.179.008-.179.008-.181.006-.182.005-.182.004-.184.003-.184.002h-.37l-.184-.002-.184-.003-.182-.004-.182-.005-.181-.006-.179-.008-.179-.008-.178-.01-.176-.011-.176-.012-.175-.013-.173-.014-.172-.015-.171-.016-.17-.017-.169-.018-.167-.019-.166-.02-.165-.021-.163-.022-.162-.023-.161-.024-.159-.025-.157-.026-.156-.027-.155-.027-.153-.029-.151-.03-.15-.03-.148-.031-.146-.032-.145-.033-.143-.034-.141-.035-.14-.035-.137-.037-.136-.037-.134-.038-.132-.038-.13-.04-.128-.04-.126-.041-.124-.042-.122-.042-.12-.044-.117-.043-.116-.045-.113-.045-.112-.046-.109-.047-.106-.047-.105-.048-.102-.049-.1-.049-.097-.05-.095-.05-.093-.052-.09-.051-.087-.052-.085-.053-.083-.054-.08-.054-.077-.054v4.127zm0-5.654v.011l.001.021.003.021.004.021.005.022.006.022.007.022.009.022.01.022.011.023.012.023.013.023.015.024.016.023.017.024.018.024.019.024.021.024.022.024.023.025.024.024.052.05.056.05.061.05.066.051.07.051.075.052.079.051.084.052.088.052.092.052.097.052.102.052.105.052.11.051.114.051.119.052.123.05.127.051.131.05.135.049.139.049.144.048.147.048.152.047.155.046.16.045.163.045.167.044.171.042.176.042.178.04.183.04.187.038.19.037.194.036.197.034.202.033.204.032.209.03.212.028.216.027.219.025.222.024.226.022.23.02.233.018.236.016.24.014.243.012.246.01.249.008.253.006.256.003.259.001.26-.001.257-.003.254-.006.25-.008.247-.01.244-.012.241-.015.237-.016.233-.018.231-.02.226-.022.224-.024.22-.025.216-.027.212-.029.21-.03.205-.032.202-.033.198-.035.194-.036.191-.037.187-.039.183-.039.179-.041.175-.042.172-.043.168-.044.163-.045.16-.045.155-.047.152-.047.148-.048.143-.048.139-.05.136-.049.131-.05.126-.051.123-.051.118-.051.114-.052.11-.052.106-.052.101-.052.096-.052.092-.052.088-.052.083-.052.079-.052.074-.051.07-.052.065-.051.06-.05.056-.051.051-.049.023-.025.023-.024.021-.025.02-.024.019-.024.018-.024.017-.024.015-.023.014-.023.013-.024.012-.022.01-.023.01-.023.008-.022.006-.022.006-.022.004-.021.004-.022.001-.021.001-.021v-4.139l-.077.054-.08.054-.083.054-.085.052-.087.053-.09.051-.093.051-.095.051-.097.05-.1.049-.102.049-.105.048-.106.047-.109.047-.111.046-.114.045-.115.044-.118.044-.12.044-.122.042-.124.042-.126.041-.128.04-.13.039-.132.039-.134.038-.135.037-.138.036-.139.036-.142.035-.143.033-.144.033-.147.033-.148.031-.15.03-.151.03-.153.028-.154.028-.156.027-.158.026-.159.025-.161.024-.162.023-.163.022-.165.021-.166.02-.167.019-.169.018-.169.017-.171.016-.173.015-.173.014-.175.013-.175.012-.177.011-.178.009-.179.009-.179.007-.181.007-.182.005-.182.004-.184.003-.184.002h-.37l-.184-.002-.184-.003-.182-.004-.182-.005-.181-.007-.179-.007-.179-.009-.178-.009-.176-.011-.176-.012-.175-.013-.173-.014-.172-.015-.171-.016-.17-.017-.169-.018-.167-.019-.166-.02-.165-.021-.163-.022-.162-.023-.161-.024-.159-.025-.157-.026-.156-.027-.155-.028-.153-.028-.151-.03-.15-.03-.148-.031-.146-.033-.145-.033-.143-.033-.141-.035-.14-.036-.137-.036-.136-.037-.134-.038-.132-.039-.13-.039-.128-.04-.126-.041-.124-.042-.122-.043-.12-.043-.117-.044-.116-.044-.113-.046-.112-.046-.109-.046-.106-.047-.105-.048-.102-.049-.1-.049-.097-.05-.095-.051-.093-.051-.09-.051-.087-.053-.085-.052-.083-.054-.08-.054-.077-.054v4.139zm0-5.666v.011l.001.02.003.022.004.021.005.022.006.021.007.022.009.023.01.022.011.023.012.023.013.023.015.023.016.024.017.024.018.023.019.024.021.025.022.024.023.024.024.025.052.05.056.05.061.05.066.051.07.051.075.052.079.051.084.052.088.052.092.052.097.052.102.052.105.051.11.052.114.051.119.051.123.051.127.05.131.05.135.05.139.049.144.048.147.048.152.047.155.046.16.045.163.045.167.043.171.043.176.042.178.04.183.04.187.038.19.037.194.036.197.034.202.033.204.032.209.03.212.028.216.027.219.025.222.024.226.021.23.02.233.018.236.017.24.014.243.012.246.01.249.008.253.006.256.003.259.001.26-.001.257-.003.254-.006.25-.008.247-.01.244-.013.241-.014.237-.016.233-.018.231-.02.226-.022.224-.024.22-.025.216-.027.212-.029.21-.03.205-.032.202-.033.198-.035.194-.036.191-.037.187-.039.183-.039.179-.041.175-.042.172-.043.168-.044.163-.045.16-.045.155-.047.152-.047.148-.048.143-.049.139-.049.136-.049.131-.051.126-.05.123-.051.118-.052.114-.051.11-.052.106-.052.101-.052.096-.052.092-.052.088-.052.083-.052.079-.052.074-.052.07-.051.065-.051.06-.051.056-.05.051-.049.023-.025.023-.025.021-.024.02-.024.019-.024.018-.024.017-.024.015-.023.014-.024.013-.023.012-.023.01-.022.01-.023.008-.022.006-.022.006-.022.004-.022.004-.021.001-.021.001-.021v-4.153l-.077.054-.08.054-.083.053-.085.053-.087.053-.09.051-.093.051-.095.051-.097.05-.1.049-.102.048-.105.048-.106.048-.109.046-.111.046-.114.046-.115.044-.118.044-.12.043-.122.043-.124.042-.126.041-.128.04-.13.039-.132.039-.134.038-.135.037-.138.036-.139.036-.142.034-.143.034-.144.033-.147.032-.148.032-.15.03-.151.03-.153.028-.154.028-.156.027-.158.026-.159.024-.161.024-.162.023-.163.023-.165.021-.166.02-.167.019-.169.018-.169.017-.171.016-.173.015-.173.014-.175.013-.175.012-.177.01-.178.01-.179.009-.179.007-.181.006-.182.006-.182.004-.184.003-.184.001-.185.001-.185-.001-.184-.001-.184-.003-.182-.004-.182-.006-.181-.006-.179-.007-.179-.009-.178-.01-.176-.01-.176-.012-.175-.013-.173-.014-.172-.015-.171-.016-.17-.017-.169-.018-.167-.019-.166-.02-.165-.021-.163-.023-.162-.023-.161-.024-.159-.024-.157-.026-.156-.027-.155-.028-.153-.028-.151-.03-.15-.03-.148-.032-.146-.032-.145-.033-.143-.034-.141-.034-.14-.036-.137-.036-.136-.037-.134-.038-.132-.039-.13-.039-.128-.041-.126-.041-.124-.041-.122-.043-.12-.043-.117-.044-.116-.044-.113-.046-.112-.046-.109-.046-.106-.048-.105-.048-.102-.048-.1-.05-.097-.049-.095-.051-.093-.051-.09-.052-.087-.052-.085-.053-.083-.053-.08-.054-.077-.054v4.153zm8.74-8.179l-.257.004-.254.005-.25.008-.247.011-.244.012-.241.014-.237.016-.233.018-.231.021-.226.022-.224.023-.22.026-.216.027-.212.028-.21.031-.205.032-.202.033-.198.034-.194.036-.191.038-.187.038-.183.04-.179.041-.175.042-.172.043-.168.043-.163.045-.16.046-.155.046-.152.048-.148.048-.143.048-.139.049-.136.05-.131.05-.126.051-.123.051-.118.051-.114.052-.11.052-.106.052-.101.052-.096.052-.092.052-.088.052-.083.052-.079.052-.074.051-.07.052-.065.051-.06.05-.056.05-.051.05-.023.025-.023.024-.021.024-.02.025-.019.024-.018.024-.017.023-.015.024-.014.023-.013.023-.012.023-.01.023-.01.022-.008.022-.006.023-.006.021-.004.022-.004.021-.001.021-.001.021.001.021.001.021.004.021.004.022.006.021.006.023.008.022.01.022.01.023.012.023.013.023.014.023.015.024.017.023.018.024.019.024.02.025.021.024.023.024.023.025.051.05.056.05.06.05.065.051.07.052.074.051.079.052.083.052.088.052.092.052.096.052.101.052.106.052.11.052.114.052.118.051.123.051.126.051.131.05.136.05.139.049.143.048.148.048.152.048.155.046.16.046.163.045.168.043.172.043.175.042.179.041.183.04.187.038.191.038.194.036.198.034.202.033.205.032.21.031.212.028.216.027.22.026.224.023.226.022.231.021.233.018.237.016.241.014.244.012.247.011.25.008.254.005.257.004.26.001.26-.001.257-.004.254-.005.25-.008.247-.011.244-.012.241-.014.237-.016.233-.018.231-.021.226-.022.224-.023.22-.026.216-.027.212-.028.21-.031.205-.032.202-.033.198-.034.194-.036.191-.038.187-.038.183-.04.179-.041.175-.042.172-.043.168-.043.163-.045.16-.046.155-.046.152-.048.148-.048.143-.048.139-.049.136-.05.131-.05.126-.051.123-.051.118-.051.114-.052.11-.052.106-.052.101-.052.096-.052.092-.052.088-.052.083-.052.079-.052.074-.051.07-.052.065-.051.06-.05.056-.05.051-.05.023-.025.023-.024.021-.024.02-.025.019-.024.018-.024.017-.023.015-.024.014-.023.013-.023.012-.023.01-.023.01-.022.008-.022.006-.023.006-.021.004-.022.004-.021.001-.021.001-.021-.001-.021-.001-.021-.004-.021-.004-.022-.006-.021-.006-.023-.008-.022-.01-.022-.01-.023-.012-.023-.013-.023-.014-.023-.015-.024-.017-.023-.018-.024-.019-.024-.02-.025-.021-.024-.023-.024-.023-.025-.051-.05-.056-.05-.06-.05-.065-.051-.07-.052-.074-.051-.079-.052-.083-.052-.088-.052-.092-.052-.096-.052-.101-.052-.106-.052-.11-.052-.114-.052-.118-.051-.123-.051-.126-.051-.131-.05-.136-.05-.139-.049-.143-.048-.148-.048-.152-.048-.155-.046-.16-.046-.163-.045-.168-.043-.172-.043-.175-.042-.179-.041-.183-.04-.187-.038-.191-.038-.194-.036-.198-.034-.202-.033-.205-.032-.21-.031-.212-.028-.216-.027-.22-.026-.224-.023-.226-.022-.231-.021-.233-.018-.237-.016-.241-.014-.244-.012-.247-.011-.25-.008-.254-.005-.257-.004-.26-.001-.26.001z" transform="scale(.5)"></path></symbol></defs><defs><symbol height="24" width="24" id="clock"><path d="M12 2c5.514 0 10 4.486 10 10s-4.486 10-10 10-10-4.486-10-10 4.486-10 10-10zm0-2c-6.627 0-12 5.373-12 12s5.373 12 12 12 12-5.373 12-12-5.373-12-12-12zm5.848 12.459c.202.038.202.333.001.372-1.907.361-6.045 1.111-6.547 1.111-.719 0-1.301-.582-1.301-1.301 0-.512.77-5.447 1.125-7.445.034-.192.312-.181.343.014l.985 6.238 5.394 1.011z" transform="scale(.5)"></path></symbol></defs><defs><marker orient="auto-start-reverse" markerHeight="12" markerWidth="12" markerUnits="userSpaceOnUse" refY="5" refX="7.9" id="arrowhead"><path d="M -1 0 L 10 5 L 0 10 z"></path></marker></defs><defs><marker refY="4.5" refX="4" orient="auto" markerHeight="8" markerWidth="15" id="crosshead"><path style="stroke-dasharray: 0, 0;" d="M 1,2 L 6,7 M 6,2 L 1,7" stroke-width="1pt" stroke="#000000" fill="none"></path></marker></defs><defs><marker orient="auto" markerHeight="28" markerWidth="20" refY="7" refX="15.5" id="filled-head"><path d="M 18,7 L9,13 L14,7 L9,1 Z"></path></marker></defs><defs><marker orient="auto" markerHeight="40" markerWidth="60" refY="15" refX="15" id="sequencenumber"><circle r="6" cy="15" cx="15"></circle></marker></defs><g id="viewport-20250614171703955" class="svg-pan-zoom_viewport" transform="matrix(0.5561491922075448,0,0,0.5561491922075448,-1359.5544452041092,80.64742979651022)" style="transform: matrix(0.556149, 0, 0, 0.556149, -1359.55, 80.6474);"><g><rect class="actor actor-bottom" ry="3" rx="3" name="AudioPlayer" height="65" width="150" stroke="#666" fill="#eaeaea" y="757" x="4081.5"></rect><text style="text-anchor: middle; font-size: 16px; font-weight: 400;" class="actor actor-box" alignment-baseline="central" dominant-baseline="central" y="789.5" x="4156.5"><tspan dy="0" x="4156.5">AudioPlayer</tspan></text></g><g><rect class="actor actor-bottom" ry="3" rx="3" name="TTSService" height="65" width="150" stroke="#666" fill="#eaeaea" y="757" x="3881.5"></rect><text style="text-anchor: middle; font-size: 16px; font-weight: 400;" class="actor actor-box" alignment-baseline="central" dominant-baseline="central" y="789.5" x="3956.5"><tspan dy="0" x="3956.5">TTSService</tspan></text></g><g><rect class="actor actor-bottom" ry="3" rx="3" name="LLMService" height="65" width="150" stroke="#666" fill="#eaeaea" y="757" x="3681.5"></rect><text style="text-anchor: middle; font-size: 16px; font-weight: 400;" class="actor actor-box" alignment-baseline="central" dominant-baseline="central" y="789.5" x="3756.5"><tspan dy="0" x="3756.5">LLMService</tspan></text></g><g><rect class="actor actor-bottom" ry="3" rx="3" name="SERService" height="65" width="150" stroke="#666" fill="#eaeaea" y="757" x="3481.5"></rect><text style="text-anchor: middle; font-size: 16px; font-weight: 400;" class="actor actor-box" alignment-baseline="central" dominant-baseline="central" y="789.5" x="3556.5"><tspan dy="0" x="3556.5">SERService</tspan></text></g><g><rect class="actor actor-bottom" ry="3" rx="3" name="ASRService" height="65" width="150" stroke="#666" fill="#eaeaea" y="757" x="3281.5"></rect><text style="text-anchor: middle; font-size: 16px; font-weight: 400;" class="actor actor-box" alignment-baseline="central" dominant-baseline="central" y="789.5" x="3356.5"><tspan dy="0" x="3356.5">ASRService</tspan></text></g><g><rect class="actor actor-bottom" ry="3" rx="3" name="NodeServer" height="65" width="150" stroke="#666" fill="#eaeaea" y="757" x="3066.5"></rect><text style="text-anchor: middle; font-size: 16px; font-weight: 400;" class="actor actor-box" alignment-baseline="central" dominant-baseline="central" y="789.5" x="3141.5"><tspan dy="0" x="3141.5">NodeServer</tspan></text></g><g><rect class="actor actor-bottom" ry="3" rx="3" name="AudioRecorder" height="65" width="150" stroke="#666" fill="#eaeaea" y="757" x="2866.5"></rect><text style="text-anchor: middle; font-size: 16px; font-weight: 400;" class="actor actor-box" alignment-baseline="central" dominant-baseline="central" y="789.5" x="2941.5"><tspan dy="0" x="2941.5">AudioRecorder</tspan></text></g><g><rect class="actor actor-bottom" ry="3" rx="3" name="IPCService" height="65" width="150" stroke="#666" fill="#eaeaea" y="757" x="2641.5"></rect><text style="text-anchor: middle; font-size: 16px; font-weight: 400;" class="actor actor-box" alignment-baseline="central" dominant-baseline="central" y="789.5" x="2716.5"><tspan dy="0" x="2716.5">IPCService</tspan></text></g><g><rect class="actor actor-bottom" ry="3" rx="3" name="WakeWordEngine" height="65" width="157" stroke="#666" fill="#eaeaea" y="757" x="2404"></rect><text style="text-anchor: middle; font-size: 16px; font-weight: 400;" class="actor actor-box" alignment-baseline="central" dominant-baseline="central" y="789.5" x="2482.5"><tspan dy="0" x="2482.5">WakeWordEngine</tspan></text></g><g><rect class="actor actor-bottom" ry="3" rx="3" name="AudioPlayer (C++)" height="65" width="160" stroke="#666" fill="#eaeaea" y="757" x="2194"></rect><text style="text-anchor: middle; font-size: 16px; font-weight: 400;" class="actor actor-box" alignment-baseline="central" dominant-baseline="central" y="789.5" x="2274"><tspan dy="0" x="2274">AudioPlayer (C++)</tspan></text></g><g><rect class="actor actor-bottom" ry="3" rx="3" name="TTSService (Piper)" height="65" width="165" stroke="#666" fill="#eaeaea" y="757" x="1979"></rect><text style="text-anchor: middle; font-size: 16px; font-weight: 400;" class="actor actor-box" alignment-baseline="central" dominant-baseline="central" y="789.5" x="2061.5"><tspan dy="0" x="2061.5">TTSService (Piper)</tspan></text></g><g><rect class="actor actor-bottom" ry="3" rx="3" name="LLMService (LLM Inference)" height="65" width="238" stroke="#666" fill="#eaeaea" y="757" x="1691"></rect><text style="text-anchor: middle; font-size: 16px; font-weight: 400;" class="actor actor-box" alignment-baseline="central" dominant-baseline="central" y="789.5" x="1810"><tspan dy="0" x="1810">LLMService (LLM Inference)</tspan></text></g><g><rect class="actor actor-bottom" ry="3" rx="3" name="SERService (openSMILE)" height="65" width="209" stroke="#666" fill="#eaeaea" y="757" x="1432"></rect><text style="text-anchor: middle; font-size: 16px; font-weight: 400;" class="actor actor-box" alignment-baseline="central" dominant-baseline="central" y="789.5" x="1536.5"><tspan dy="0" x="1536.5">SERService (openSMILE)</tspan></text></g><g><rect class="actor actor-bottom" ry="3" rx="3" name="ASRService (Whisper)" height="65" width="191" stroke="#666" fill="#eaeaea" y="757" x="1191"></rect><text style="text-anchor: middle; font-size: 16px; font-weight: 400;" class="actor actor-box" alignment-baseline="central" dominant-baseline="central" y="789.5" x="1286.5"><tspan dy="0" x="1286.5">ASRService (Whisper)</tspan></text></g><g><rect class="actor actor-bottom" ry="3" rx="3" name="NodeServer (Node.js)" height="65" width="186" stroke="#666" fill="#eaeaea" y="757" x="955"></rect><text style="text-anchor: middle; font-size: 16px; font-weight: 400;" class="actor actor-box" alignment-baseline="central" dominant-baseline="central" y="789.5" x="1048"><tspan dy="0" x="1048">NodeServer (Node.js)</tspan></text></g><g><rect class="actor actor-bottom" ry="3" rx="3" name="IPCService (React Native)" height="65" width="223" stroke="#666" fill="#eaeaea" y="757" x="682"></rect><text style="text-anchor: middle; font-size: 16px; font-weight: 400;" class="actor actor-box" alignment-baseline="central" dominant-baseline="central" y="789.5" x="793.5"><tspan dy="0" x="793.5">IPCService (React Native)</tspan></text></g><g><rect class="actor actor-bottom" ry="3" rx="3" name="AudioRecorder (C++)" height="65" width="180" stroke="#666" fill="#eaeaea" y="757" x="452"></rect><text style="text-anchor: middle; font-size: 16px; font-weight: 400;" class="actor actor-box" alignment-baseline="central" dominant-baseline="central" y="789.5" x="542"><tspan dy="0" x="542">AudioRecorder (C++)</tspan></text></g><g><rect class="actor actor-bottom" ry="3" rx="3" name="WakeWordEngine (C++)" height="65" width="202" stroke="#666" fill="#eaeaea" y="757" x="200"></rect><text style="text-anchor: middle; font-size: 16px; font-weight: 400;" class="actor actor-box" alignment-baseline="central" dominant-baseline="central" y="789.5" x="301"><tspan dy="0" x="301">WakeWordEngine (C++)</tspan></text></g><g><rect class="actor actor-bottom" ry="3" rx="3" name="User" height="65" width="150" stroke="#666" fill="#eaeaea" y="757" x="0"></rect><text style="text-anchor: middle; font-size: 16px; font-weight: 400;" class="actor actor-box" alignment-baseline="central" dominant-baseline="central" y="789.5" x="75"><tspan dy="0" x="75">User</tspan></text></g><g><line name="AudioPlayer" stroke="#999" stroke-width="0.5px" class="actor-line 200" y2="757" x2="4156.5" y1="65" x1="4156.5" id="actor21"></line><g id="root-21"><rect class="actor actor-top" ry="3" rx="3" name="AudioPlayer" height="65" width="150" stroke="#666" fill="#eaeaea" y="0" x="4081.5"></rect><text style="text-anchor: middle; font-size: 16px; font-weight: 400;" class="actor actor-box" alignment-baseline="central" dominant-baseline="central" y="32.5" x="4156.5"><tspan dy="0" x="4156.5">AudioPlayer</tspan></text></g></g><g><line name="TTSService" stroke="#999" stroke-width="0.5px" class="actor-line 200" y2="757" x2="3956.5" y1="65" x1="3956.5" id="actor20"></line><g id="root-20"><rect class="actor actor-top" ry="3" rx="3" name="TTSService" height="65" width="150" stroke="#666" fill="#eaeaea" y="0" x="3881.5"></rect><text style="text-anchor: middle; font-size: 16px; font-weight: 400;" class="actor actor-box" alignment-baseline="central" dominant-baseline="central" y="32.5" x="3956.5"><tspan dy="0" x="3956.5">TTSService</tspan></text></g></g><g><line name="LLMService" stroke="#999" stroke-width="0.5px" class="actor-line 200" y2="757" x2="3756.5" y1="65" x1="3756.5" id="actor19"></line><g id="root-19"><rect class="actor actor-top" ry="3" rx="3" name="LLMService" height="65" width="150" stroke="#666" fill="#eaeaea" y="0" x="3681.5"></rect><text style="text-anchor: middle; font-size: 16px; font-weight: 400;" class="actor actor-box" alignment-baseline="central" dominant-baseline="central" y="32.5" x="3756.5"><tspan dy="0" x="3756.5">LLMService</tspan></text></g></g><g><line name="SERService" stroke="#999" stroke-width="0.5px" class="actor-line 200" y2="757" x2="3556.5" y1="65" x1="3556.5" id="actor18"></line><g id="root-18"><rect class="actor actor-top" ry="3" rx="3" name="SERService" height="65" width="150" stroke="#666" fill="#eaeaea" y="0" x="3481.5"></rect><text style="text-anchor: middle; font-size: 16px; font-weight: 400;" class="actor actor-box" alignment-baseline="central" dominant-baseline="central" y="32.5" x="3556.5"><tspan dy="0" x="3556.5">SERService</tspan></text></g></g><g><line name="ASRService" stroke="#999" stroke-width="0.5px" class="actor-line 200" y2="757" x2="3356.5" y1="65" x1="3356.5" id="actor17"></line><g id="root-17"><rect class="actor actor-top" ry="3" rx="3" name="ASRService" height="65" width="150" stroke="#666" fill="#eaeaea" y="0" x="3281.5"></rect><text style="text-anchor: middle; font-size: 16px; font-weight: 400;" class="actor actor-box" alignment-baseline="central" dominant-baseline="central" y="32.5" x="3356.5"><tspan dy="0" x="3356.5">ASRService</tspan></text></g></g><g><line name="NodeServer" stroke="#999" stroke-width="0.5px" class="actor-line 200" y2="757" x2="3141.5" y1="65" x1="3141.5" id="actor16"></line><g id="root-16"><rect class="actor actor-top" ry="3" rx="3" name="NodeServer" height="65" width="150" stroke="#666" fill="#eaeaea" y="0" x="3066.5"></rect><text style="text-anchor: middle; font-size: 16px; font-weight: 400;" class="actor actor-box" alignment-baseline="central" dominant-baseline="central" y="32.5" x="3141.5"><tspan dy="0" x="3141.5">NodeServer</tspan></text></g></g><g><line name="AudioRecorder" stroke="#999" stroke-width="0.5px" class="actor-line 200" y2="757" x2="2941.5" y1="65" x1="2941.5" id="actor15"></line><g id="root-15"><rect class="actor actor-top" ry="3" rx="3" name="AudioRecorder" height="65" width="150" stroke="#666" fill="#eaeaea" y="0" x="2866.5"></rect><text style="text-anchor: middle; font-size: 16px; font-weight: 400;" class="actor actor-box" alignment-baseline="central" dominant-baseline="central" y="32.5" x="2941.5"><tspan dy="0" x="2941.5">AudioRecorder</tspan></text></g></g><g><line name="IPCService" stroke="#999" stroke-width="0.5px" class="actor-line 200" y2="757" x2="2716.5" y1="65" x1="2716.5" id="actor14"></line><g id="root-14"><rect class="actor actor-top" ry="3" rx="3" name="IPCService" height="65" width="150" stroke="#666" fill="#eaeaea" y="0" x="2641.5"></rect><text style="text-anchor: middle; font-size: 16px; font-weight: 400;" class="actor actor-box" alignment-baseline="central" dominant-baseline="central" y="32.5" x="2716.5"><tspan dy="0" x="2716.5">IPCService</tspan></text></g></g><g><line name="WakeWordEngine" stroke="#999" stroke-width="0.5px" class="actor-line 200" y2="757" x2="2482.5" y1="65" x1="2482.5" id="actor13"></line><g id="root-13"><rect class="actor actor-top" ry="3" rx="3" name="WakeWordEngine" height="65" width="157" stroke="#666" fill="#eaeaea" y="0" x="2404"></rect><text style="text-anchor: middle; font-size: 16px; font-weight: 400;" class="actor actor-box" alignment-baseline="central" dominant-baseline="central" y="32.5" x="2482.5"><tspan dy="0" x="2482.5">WakeWordEngine</tspan></text></g></g><g><line name="AudioPlayer (C++)" stroke="#999" stroke-width="0.5px" class="actor-line 200" y2="757" x2="2274" y1="65" x1="2274" id="actor12"></line><g id="root-12"><rect class="actor actor-top" ry="3" rx="3" name="AudioPlayer (C++)" height="65" width="160" stroke="#666" fill="#eaeaea" y="0" x="2194"></rect><text style="text-anchor: middle; font-size: 16px; font-weight: 400;" class="actor actor-box" alignment-baseline="central" dominant-baseline="central" y="32.5" x="2274"><tspan dy="0" x="2274">AudioPlayer (C++)</tspan></text></g></g><g><line name="TTSService (Piper)" stroke="#999" stroke-width="0.5px" class="actor-line 200" y2="757" x2="2061.5" y1="65" x1="2061.5" id="actor11"></line><g id="root-11"><rect class="actor actor-top" ry="3" rx="3" name="TTSService (Piper)" height="65" width="165" stroke="#666" fill="#eaeaea" y="0" x="1979"></rect><text style="text-anchor: middle; font-size: 16px; font-weight: 400;" class="actor actor-box" alignment-baseline="central" dominant-baseline="central" y="32.5" x="2061.5"><tspan dy="0" x="2061.5">TTSService (Piper)</tspan></text></g></g><g><line name="LLMService (LLM Inference)" stroke="#999" stroke-width="0.5px" class="actor-line 200" y2="757" x2="1810" y1="65" x1="1810" id="actor10"></line><g id="root-10"><rect class="actor actor-top" ry="3" rx="3" name="LLMService (LLM Inference)" height="65" width="238" stroke="#666" fill="#eaeaea" y="0" x="1691"></rect><text style="text-anchor: middle; font-size: 16px; font-weight: 400;" class="actor actor-box" alignment-baseline="central" dominant-baseline="central" y="32.5" x="1810"><tspan dy="0" x="1810">LLMService (LLM Inference)</tspan></text></g></g><g><line name="SERService (openSMILE)" stroke="#999" stroke-width="0.5px" class="actor-line 200" y2="757" x2="1536.5" y1="65" x1="1536.5" id="actor9"></line><g id="root-9"><rect class="actor actor-top" ry="3" rx="3" name="SERService (openSMILE)" height="65" width="209" stroke="#666" fill="#eaeaea" y="0" x="1432"></rect><text style="text-anchor: middle; font-size: 16px; font-weight: 400;" class="actor actor-box" alignment-baseline="central" dominant-baseline="central" y="32.5" x="1536.5"><tspan dy="0" x="1536.5">SERService (openSMILE)</tspan></text></g></g><g><line name="ASRService (Whisper)" stroke="#999" stroke-width="0.5px" class="actor-line 200" y2="757" x2="1286.5" y1="65" x1="1286.5" id="actor8"></line><g id="root-8"><rect class="actor actor-top" ry="3" rx="3" name="ASRService (Whisper)" height="65" width="191" stroke="#666" fill="#eaeaea" y="0" x="1191"></rect><text style="text-anchor: middle; font-size: 16px; font-weight: 400;" class="actor actor-box" alignment-baseline="central" dominant-baseline="central" y="32.5" x="1286.5"><tspan dy="0" x="1286.5">ASRService (Whisper)</tspan></text></g></g><g><line name="NodeServer (Node.js)" stroke="#999" stroke-width="0.5px" class="actor-line 200" y2="757" x2="1048" y1="65" x1="1048" id="actor7"></line><g id="root-7"><rect class="actor actor-top" ry="3" rx="3" name="NodeServer (Node.js)" height="65" width="186" stroke="#666" fill="#eaeaea" y="0" x="955"></rect><text style="text-anchor: middle; font-size: 16px; font-weight: 400;" class="actor actor-box" alignment-baseline="central" dominant-baseline="central" y="32.5" x="1048"><tspan dy="0" x="1048">NodeServer (Node.js)</tspan></text></g></g><g><line name="IPCService (React Native)" stroke="#999" stroke-width="0.5px" class="actor-line 200" y2="757" x2="793.5" y1="65" x1="793.5" id="actor6"></line><g id="root-6"><rect class="actor actor-top" ry="3" rx="3" name="IPCService (React Native)" height="65" width="223" stroke="#666" fill="#eaeaea" y="0" x="682"></rect><text style="text-anchor: middle; font-size: 16px; font-weight: 400;" class="actor actor-box" alignment-baseline="central" dominant-baseline="central" y="32.5" x="793.5"><tspan dy="0" x="793.5">IPCService (React Native)</tspan></text></g></g><g><line name="AudioRecorder (C++)" stroke="#999" stroke-width="0.5px" class="actor-line 200" y2="757" x2="542" y1="65" x1="542" id="actor5"></line><g id="root-5"><rect class="actor actor-top" ry="3" rx="3" name="AudioRecorder (C++)" height="65" width="180" stroke="#666" fill="#eaeaea" y="0" x="452"></rect><text style="text-anchor: middle; font-size: 16px; font-weight: 400;" class="actor actor-box" alignment-baseline="central" dominant-baseline="central" y="32.5" x="542"><tspan dy="0" x="542">AudioRecorder (C++)</tspan></text></g></g><g><line name="WakeWordEngine (C++)" stroke="#999" stroke-width="0.5px" class="actor-line 200" y2="757" x2="301" y1="65" x1="301" id="actor4"></line><g id="root-4"><rect class="actor actor-top" ry="3" rx="3" name="WakeWordEngine (C++)" height="65" width="202" stroke="#666" fill="#eaeaea" y="0" x="200"></rect><text style="text-anchor: middle; font-size: 16px; font-weight: 400;" class="actor actor-box" alignment-baseline="central" dominant-baseline="central" y="32.5" x="301"><tspan dy="0" x="301">WakeWordEngine (C++)</tspan></text></g></g><g><line name="User" stroke="#999" stroke-width="0.5px" class="actor-line 200" y2="757" x2="75" y1="65" x1="75" id="actor3"></line><g id="root-3"><rect class="actor actor-top" ry="3" rx="3" name="User" height="65" width="150" stroke="#666" fill="#eaeaea" y="0" x="0"></rect><text style="text-anchor: middle; font-size: 16px; font-weight: 400;" class="actor actor-box" alignment-baseline="central" dominant-baseline="central" y="32.5" x="75"><tspan dy="0" x="75">User</tspan></text></g></g><style>#graph-48{font-family:"trebuchet ms",verdana,arial,sans-serif;font-size:16px;fill:#ccc;}@keyframes edge-animation-frame{from{stroke-dashoffset:0;}}@keyframes dash{to{stroke-dashoffset:0;}}#graph-48 .edge-animation-slow{stroke-dasharray:9,5!important;stroke-dashoffset:900;animation:dash 50s linear infinite;stroke-linecap:round;}#graph-48 .edge-animation-fast{stroke-dasharray:9,5!important;stroke-dashoffset:900;animation:dash 20s linear infinite;stroke-linecap:round;}#graph-48 .error-icon{fill:#a44141;}#graph-48 .error-text{fill:#ddd;stroke:#ddd;}#graph-48 .edge-thickness-normal{stroke-width:1px;}#graph-48 .edge-thickness-thick{stroke-width:3.5px;}#graph-48 .edge-pattern-solid{stroke-dasharray:0;}#graph-48 .edge-thickness-invisible{stroke-width:0;fill:none;}#graph-48 .edge-pattern-dashed{stroke-dasharray:3;}#graph-48 .edge-pattern-dotted{stroke-dasharray:2;}#graph-48 .marker{fill:lightgrey;stroke:lightgrey;}#graph-48 .marker.cross{stroke:lightgrey;}#graph-48 svg{font-family:"trebuchet ms",verdana,arial,sans-serif;font-size:16px;}#graph-48 p{margin:0;}#graph-48 .actor{stroke:#ccc;fill:#1f2020;}#graph-48 text.actor&gt;tspan{fill:lightgrey;stroke:none;}#graph-48 .actor-line{stroke:#ccc;}#graph-48 .messageLine0{stroke-width:1.5;stroke-dasharray:none;stroke:lightgrey;}#graph-48 .messageLine1{stroke-width:1.5;stroke-dasharray:2,2;stroke:lightgrey;}#graph-48 #arrowhead path{fill:lightgrey;stroke:lightgrey;}#graph-48 .sequenceNumber{fill:black;}#graph-48 #sequencenumber{fill:lightgrey;}#graph-48 #crosshead path{fill:lightgrey;stroke:lightgrey;}#graph-48 .messageText{fill:lightgrey;stroke:none;}#graph-48 .labelBox{stroke:#ccc;fill:#1f2020;}#graph-48 .labelText,#graph-48 .labelText&gt;tspan{fill:lightgrey;stroke:none;}#graph-48 .loopText,#graph-48 .loopText&gt;tspan{fill:lightgrey;stroke:none;}#graph-48 .loopLine{stroke-width:2px;stroke-dasharray:2,2;stroke:#ccc;fill:#ccc;}#graph-48 .note{stroke:hsl(180, 0%, 18.3529411765%);fill:hsl(180, 1.5873015873%, 28.3529411765%);}#graph-48 .noteText,#graph-48 .noteText&gt;tspan{fill:rgb(183.8476190475, 181.5523809523, 181.5523809523);stroke:none;}#graph-48 .activation0{fill:hsl(180, 1.5873015873%, 28.3529411765%);stroke:#ccc;}#graph-48 .activation1{fill:hsl(180, 1.5873015873%, 28.3529411765%);stroke:#ccc;}#graph-48 .activation2{fill:hsl(180, 1.5873015873%, 28.3529411765%);stroke:#ccc;}#graph-48 .actorPopupMenu{position:absolute;}#graph-48 .actorPopupMenuPanel{position:absolute;fill:#1f2020;box-shadow:0px 8px 16px 0px rgba(0,0,0,0.2);filter:drop-shadow(3px 5px 2px rgb(0 0 0 / 0.4));}#graph-48 .actor-man line{stroke:#ccc;fill:#1f2020;}#graph-48 .actor-man circle,#graph-48 line{stroke:#ccc;fill:#1f2020;stroke-width:2px;}#graph-48 :root{--mermaid-font-family:"trebuchet ms",verdana,arial,sans-serif;}</style><g></g><text style="font-size: 16px; font-weight: 400;" dy="1em" class="messageText" alignment-baseline="middle" dominant-baseline="middle" text-anchor="middle" y="80" x="1277">Passive listening</text><line style="fill: none;" marker-end="url(#arrowhead)" stroke="none" stroke-width="2" class="messageLine0" y2="113" x2="2478.5" y1="113" x1="76"></line><text style="font-size: 16px; font-weight: 400;" dy="1em" class="messageText" alignment-baseline="middle" dominant-baseline="middle" text-anchor="middle" y="128" x="2598">Wake word detected</text><line style="stroke-dasharray: 3, 3; fill: none;" marker-end="url(#arrowhead)" stroke="none" stroke-width="2" class="messageLine1" y2="161" x2="2712.5" y1="161" x1="2483.5"></line><text style="font-size: 16px; font-weight: 400;" dy="1em" class="messageText" alignment-baseline="middle" dominant-baseline="middle" text-anchor="middle" y="176" x="2828">Start recording mic</text><line style="fill: none;" marker-end="url(#arrowhead)" stroke="none" stroke-width="2" class="messageLine0" y2="209" x2="2937.5" y1="209" x1="2717.5"></line><text style="font-size: 16px; font-weight: 400;" dy="1em" class="messageText" alignment-baseline="middle" dominant-baseline="middle" text-anchor="middle" y="224" x="3040">Stream audio</text><line style="stroke-dasharray: 3, 3; fill: none;" marker-end="url(#arrowhead)" stroke="none" stroke-width="2" class="messageLine1" y2="257" x2="3137.5" y1="257" x1="2942.5"></line><text style="font-size: 16px; font-weight: 400;" dy="1em" class="messageText" alignment-baseline="middle" dominant-baseline="middle" text-anchor="middle" y="272" x="3248">Transcribe stream</text><line style="fill: none;" marker-end="url(#arrowhead)" stroke="none" stroke-width="2" class="messageLine0" y2="305" x2="3352.5" y1="305" x1="3142.5"></line><text style="font-size: 16px; font-weight: 400;" dy="1em" class="messageText" alignment-baseline="middle" dominant-baseline="middle" text-anchor="middle" y="320" x="3348">Detect emotion</text><line style="fill: none;" marker-end="url(#arrowhead)" stroke="none" stroke-width="2" class="messageLine0" y2="353" x2="3552.5" y1="353" x1="3142.5"></line><text style="font-size: 16px; font-weight: 400;" dy="1em" class="messageText" alignment-baseline="middle" dominant-baseline="middle" text-anchor="middle" y="368" x="3251">Transcribed text</text><line style="stroke-dasharray: 3, 3; fill: none;" marker-end="url(#arrowhead)" stroke="none" stroke-width="2" class="messageLine1" y2="401" x2="3145.5" y1="401" x1="3355.5"></line><text style="font-size: 16px; font-weight: 400;" dy="1em" class="messageText" alignment-baseline="middle" dominant-baseline="middle" text-anchor="middle" y="416" x="3351">Emotion metadata</text><line style="stroke-dasharray: 3, 3; fill: none;" marker-end="url(#arrowhead)" stroke="none" stroke-width="2" class="messageLine1" y2="449" x2="3145.5" y1="449" x1="3555.5"></line><text style="font-size: 16px; font-weight: 400;" dy="1em" class="messageText" alignment-baseline="middle" dominant-baseline="middle" text-anchor="middle" y="464" x="3448">Prompt + Emotion context</text><line style="fill: none;" marker-end="url(#arrowhead)" stroke="none" stroke-width="2" class="messageLine0" y2="497" x2="3752.5" y1="497" x1="3142.5"></line><text style="font-size: 16px; font-weight: 400;" dy="1em" class="messageText" alignment-baseline="middle" dominant-baseline="middle" text-anchor="middle" y="512" x="3451">AI response text</text><line style="stroke-dasharray: 3, 3; fill: none;" marker-end="url(#arrowhead)" stroke="none" stroke-width="2" class="messageLine1" y2="545" x2="3145.5" y1="545" x1="3755.5"></line><text style="font-size: 16px; font-weight: 400;" dy="1em" class="messageText" alignment-baseline="middle" dominant-baseline="middle" text-anchor="middle" y="560" x="3548">Synthesize response</text><line style="fill: none;" marker-end="url(#arrowhead)" stroke="none" stroke-width="2" class="messageLine0" y2="593" x2="3952.5" y1="593" x1="3142.5"></line><text style="font-size: 16px; font-weight: 400;" dy="1em" class="messageText" alignment-baseline="middle" dominant-baseline="middle" text-anchor="middle" y="608" x="3551">Audio (Base64/wav)</text><line style="stroke-dasharray: 3, 3; fill: none;" marker-end="url(#arrowhead)" stroke="none" stroke-width="2" class="messageLine1" y2="641" x2="3145.5" y1="641" x1="3955.5"></line><text style="font-size: 16px; font-weight: 400;" dy="1em" class="messageText" alignment-baseline="middle" dominant-baseline="middle" text-anchor="middle" y="656" x="3648">Play synthesized audio</text><line style="fill: none;" marker-end="url(#arrowhead)" stroke="none" stroke-width="2" class="messageLine0" y2="689" x2="4152.5" y1="689" x1="3142.5"></line><text style="font-size: 16px; font-weight: 400;" dy="1em" class="messageText" alignment-baseline="middle" dominant-baseline="middle" text-anchor="middle" y="704" x="2117">Spoken AI response</text><line style="stroke-dasharray: 3, 3; fill: none;" marker-end="url(#arrowhead)" stroke="none" stroke-width="2" class="messageLine1" y2="737" x2="79" y1="737" x1="4155.5"></line></g></svg>